<?xml version="1.0" standalone="no"?>
<!DOCTYPE svg PUBLIC "-//W3C//DTD SVG 20010904//EN"
 "http://www.w3.org/TR/2001/REC-SVG-20010904/DTD/svg10.dtd">
<svg version="1.0" xmlns="http://www.w3.org/2000/svg"
 width="128.000000pt" height="128.000000pt" viewBox="0 0 128.000000 128.000000"
 preserveAspectRatio="xMidYMid meet">
<metadata>
Created by potrace 1.14, written by Peter Selinger 2001-2017
</metadata>
<g transform="translate(0.000000,128.000000) scale(0.100000,-0.100000)"
fill="#000000" stroke="none">
<path d="M590 1110 c-19 -19 -20 -33 -20 -470 0 -437 1 -451 20 -470 26 -26
74 -26 100 0 19 19 20 33 20 470 0 437 -1 451 -20 470 -11 11 -33 20 -50 20
-17 0 -39 -9 -50 -20z"/>
<path d="M352 987 c-21 -22 -21 -29 -21 -347 1 -315 1 -326 22 -348 25 -27 77
-29 100 -4 15 17 17 56 17 354 0 312 -1 336 -18 351 -27 24 -74 21 -100 -6z"/>
<path d="M836 869 l-26 -21 2 -210 3 -211 27 -20 c32 -24 72 -17 89 14 9 17
15 275 10 412 -1 23 -36 57 -60 57 -10 0 -30 -9 -45 -21z"/>
<path d="M114 809 c-17 -19 -19 -38 -19 -169 0 -131 2 -150 19 -169 27 -30 79
-28 104 4 17 22 20 41 20 165 0 124 -2 143 -20 165 -25 32 -77 34 -104 4z"/>
<path d="M1062 740 c-14 -20 -18 -42 -17 -107 1 -74 4 -85 25 -103 14 -12 35
-20 50 -18 49 6 67 42 64 133 -3 85 -2 82 -26 105 -29 27 -72 23 -96 -10z"/>
</g>
</svg>
